<?xml version="1.0" encoding="UTF-8"?><svg id="Layer_1" xmlns="http://www.w3.org/2000/svg" viewBox="0 0 889.88 632.7"><path d="m63.6.72C35.8,5.32,12.6,25.52,3.2,53.12l-2.7,8-.3,252.1-.2,252.1,2.5,9.8c7.7,30.3,33.3,52.5,65,56.4,12.3,1.5,742.4,1.6,754.4.1,18.6-2.4,32.6-9.3,45.6-22.4,11.8-12,17.8-23.2,21-39.1,1.4-7.2,1.5-32.2,1.3-258l-.3-250-2.8-8c-8.6-25.3-25.9-42.6-51.2-51.3l-8-2.7L448,.02C239.3-.08,66.3.22,63.6.72Zm748.9,47.8c-1.1,1-33,29-71,62.1-37.9,33.2-120,104.9-182.3,159.4-84.4,73.8-114.9,100-119.7,102.5-11.8,6.3-26.9,5.2-36.7-2.7-3.7-2.9-330.8-322.1-330.8-322.8,0-.2,167.1-.4,371.2-.4,364.8,0,371.2,0,369.3,1.9Zm30.3,385.6l-.3,116.5-109.9-133c-60.4-73.2-110.7-134.1-111.7-135.4l-1.9-2.4,111.8-97.6,111.7-97.6.3,116.5c.1,64.1.1,168.9,0,233ZM148.9,188.02c55.7,54.3,101.1,99.2,100.9,99.7-.4,1.2-202.2,245.7-202.8,245.8-.3.1-.5-100-.5-222.4s.3-222.4.6-222.3c.3.2,46.1,44.8,101.8,99.2Zm548.6,260.6l112.7,136.5-366.7.3c-201.7.1-368.8-.1-371.2-.5-2.5-.5-4.6-1.2-4.7-1.6-.1-.9,215.5-262.5,216.5-262.6.3-.1,19.5,18.4,42.8,41.1,23.2,22.7,44.8,43.2,47.9,45.6,27.4,21.3,69.2,21.3,97.7-.1,3.3-2.5,29.6-25.2,58.5-50.5s52.8-45.7,53.2-45.4c.3.4,51.3,62.1,113.3,137.2Z"/></svg>